<svg width="100%" height="100%" viewBox="0 0 24 24" fill="none" xmlns="http://www.w3.org/2000/svg">
<g opacity="0.8">
<path fill-rule="evenodd" clip-rule="evenodd" d="M12.7187 3.78125C14.8071 1.69292 18.1789 1.67893 20.25 3.75C22.3211 5.82107 22.3071 9.19292 20.2187 11.2813L17.1064 14.3936L15.7428 13.03L18.8551 9.91761C20.184 8.58868 20.193 6.44295 18.875 5.125C17.557 3.80705 15.4113 3.81595 14.0824 5.14489L11.3805 7.84682L10.0168 6.48319L12.7187 3.78125ZM9.91761 18.8551L11.5662 17.2065L12.9298 18.5702L11.2812 20.2188C9.19292 22.3071 5.82107 22.3211 3.75 20.25C1.67893 18.1789 1.69292 14.8071 3.78125 12.7188L5.35216 11.1478L6.71579 12.5115L5.14488 14.0824C3.81595 15.4113 3.80705 17.557 5.125 18.875C6.44295 20.193 8.58868 20.1841 9.91761 18.8551Z" fill="white"/>
<path fill-rule="evenodd" clip-rule="evenodd" d="M15.9545 9.90979L8.45454 17.4098L6.95454 15.9098L14.4545 8.40979L15.9545 9.90979Z" fill="white"/>
</g>
</svg>
